<?xml version="1.0" encoding="UTF-8"?>
<svg version="1.1" xmlns="http://www.w3.org/2000/svg" width="160" height="160">
<path d="M0 0 C8.58 0 17.16 0 26 0 C26.495 3.465 26.495 3.465 27 7 C27.91813477 6.97905273 28.83626953 6.95810547 29.78222656 6.93652344 C33.19655428 6.86825417 36.61015443 6.81815615 40.02490234 6.78027344 C41.5012559 6.76018699 42.97753019 6.73291199 44.45361328 6.69824219 C46.57864962 6.64958816 48.70263234 6.62700327 50.828125 6.609375 C52.1059082 6.58842773 53.38369141 6.56748047 54.70019531 6.54589844 C58 7 58 7 60.42382812 8.84960938 C62.47342063 11.64589358 62.41322446 13.32228634 62.25 16.75 C62.21390625 17.73484375 62.1778125 18.7196875 62.140625 19.734375 C62.09421875 20.48203125 62.0478125 21.2296875 62 22 C60.02 22.33 58.04 22.66 56 23 C56.99 23 57.98 23 59 23 C60.33981486 23.3062434 61.67511887 23.63451555 63 24 C63 23.34 63 22.68 63 22 C69.05783583 22.12620491 71.91926698 24.12699243 76.3984375 28.11328125 C78.12294302 30.14483288 78.73566244 31.36201907 79 34 C77.6875 36.25 77.6875 36.25 76 38 C75.34 38 74.68 38 74 38 C74.185625 39.175625 74.37125 40.35125 74.5625 41.5625 C74.58428882 44.64017111 74.30800103 45.67159719 72.171875 47.94921875 C69.8362627 49.73186324 67.45120362 51.38089393 65 53 C63.33001351 54.32917292 61.66142513 55.66014102 60 57 C60.66 57 61.32 57 62 57 C62.04627451 67.13537602 62.08184427 77.27072704 62.10362434 87.40618706 C62.11407597 92.11213783 62.12826022 96.81801651 62.15087891 101.52392578 C62.17255826 106.06264076 62.18455823 110.60128624 62.18975449 115.14004898 C62.19345909 116.87446309 62.20069294 118.60887326 62.21146011 120.3432579 C62.22590995 122.76652086 62.2279807 125.18949409 62.22705078 127.61279297 C62.23424133 128.33496002 62.24143188 129.05712708 62.24884033 129.80117798 C62.22810432 134.77189568 62.22810432 134.77189568 60 137 C56.88213999 137.20956243 53.85242272 137.29362168 50.73266602 137.29052734 C49.77158936 137.29724457 48.8105127 137.30396179 47.8203125 137.31088257 C44.63145837 137.3299388 41.44281383 137.33379052 38.25390625 137.3359375 C36.04434623 137.34235983 33.83478708 137.34908776 31.62522888 137.35610962 C26.98898343 137.36810128 22.35281261 137.37178847 17.71655273 137.37060547 C11.76642563 137.37040211 5.81677524 137.39771385 -0.13323879 137.43214989 C-4.6979239 137.45435178 -9.26249305 137.45844508 -13.82722664 137.45738602 C-16.02134915 137.45975174 -18.2154744 137.46862948 -20.40954399 137.48405075 C-23.47446267 137.50357616 -26.53833715 137.4979257 -29.60327148 137.48583984 C-30.51506668 137.49707886 -31.42686188 137.50831787 -32.36628723 137.51989746 C-38.46917753 137.45852745 -38.46917753 137.45852745 -41.06898499 135.21279907 C-42.51102233 131.78542267 -42.31310174 128.39567102 -42.1875 124.75 C-42.17396484 124.00492187 -42.16042969 123.25984375 -42.14648438 122.4921875 C-42.11127204 120.66114584 -42.05746851 118.83047831 -42 117 C-40.02 116.505 -40.02 116.505 -38 116 C-38 115.34 -38 114.68 -38 114 C-40.60760846 114.0330077 -43.20662846 114.1001148 -45.8125 114.1875 C-46.55048828 114.19330078 -47.28847656 114.19910156 -48.04882812 114.20507812 C-50.49564662 114.25316515 -50.49564662 114.25316515 -54 115 C-56.08170143 117.39430739 -56.08170143 117.39430739 -57 120 C-55.35 121.65 -53.7 123.3 -52 125 C-53.28892677 127.87529818 -54.49296383 130.05008298 -57 132 C-59.6875 132.6875 -59.6875 132.6875 -62 133 C-60.63016497 129.83884224 -60.0109362 129.0072908 -57 127 C-58.20381448 124.50638429 -59.45428722 122.31856917 -61 120 C-60.83725462 116.74509242 -60.46391841 115.43398819 -58.0625 113.1875 C-56 112 -56 112 -54 112 C-53.74992187 111.11183594 -53.49984375 110.22367187 -53.2421875 109.30859375 C-51.95197258 105.87207792 -50.50227934 103.83001199 -48.125 101.0625 C-44.90604885 97.19390599 -42.32443111 93.45515962 -40 89 C-39.34 89 -38.68 89 -38 89 C-38 88.34 -38 87.68 -38 87 C-39.32 86.67 -40.64 86.34 -42 86 C-42.0462752 75.99500805 -42.08184462 65.99004142 -42.10362434 55.98496437 C-42.11407582 51.33954726 -42.12825979 46.69420319 -42.15087891 42.04882812 C-42.1725588 37.56846775 -42.18455834 33.08817778 -42.18975449 28.60776901 C-42.19345899 26.89568345 -42.20069266 25.18360188 -42.21146011 23.47154617 C-42.22591068 21.07941514 -42.22798067 18.68757758 -42.22705078 16.29541016 C-42.23424133 15.58259384 -42.24143188 14.86977753 -42.24884033 14.13536072 C-42.22810432 9.22810432 -42.22810432 9.22810432 -40 7 C-37.05903263 6.82460564 -34.21346651 6.76867625 -31.2734375 6.8046875 C-29.97921371 6.80893234 -29.97921371 6.80893234 -28.65884399 6.81326294 C-25.8974228 6.82447667 -23.1363235 6.84958316 -20.375 6.875 C-18.50521301 6.88502827 -16.63542095 6.89415438 -14.765625 6.90234375 C-10.17695891 6.92441988 -5.58853407 6.95895766 -1 7 C-0.67 4.69 -0.34 2.38 0 0 Z M3 3 C3 4.32 3 5.64 3 7 C9.6 7 16.2 7 23 7 C23 6.01 23 5.02 23 4 C16.4 3.67 9.8 3.34 3 3 Z " fill="#F9F9F9" transform="translate(72,8)"/>
<path d="M0 0 C0.04627451 10.13537602 0.08184427 20.27072704 0.10362434 30.40618706 C0.11407597 35.11213783 0.12826022 39.81801651 0.15087891 44.52392578 C0.17255826 49.06264076 0.18455823 53.60128624 0.18975449 58.14004898 C0.19345909 59.87446309 0.20069294 61.60887326 0.21146011 63.3432579 C0.22590995 65.76652086 0.2279807 68.18949409 0.22705078 70.61279297 C0.23424133 71.33496002 0.24143188 72.05712708 0.24884033 72.80117798 C0.22810432 77.77189568 0.22810432 77.77189568 -2 80 C-5.11786001 80.20956243 -8.14757728 80.29362168 -11.26733398 80.29052734 C-12.22841064 80.29724457 -13.1894873 80.30396179 -14.1796875 80.31088257 C-17.36854163 80.3299388 -20.55718617 80.33379052 -23.74609375 80.3359375 C-25.95565377 80.34235983 -28.16521292 80.34908776 -30.37477112 80.35610962 C-35.01101657 80.36810128 -39.64718739 80.37178847 -44.28344727 80.37060547 C-50.23357437 80.37040211 -56.18322476 80.39771385 -62.13323879 80.43214989 C-66.6979239 80.45435178 -71.26249305 80.45844508 -75.82722664 80.45738602 C-78.02134915 80.45975174 -80.2154744 80.46862948 -82.40954399 80.48405075 C-85.47446267 80.50357616 -88.53833715 80.4979257 -91.60327148 80.48583984 C-92.51506668 80.49707886 -93.42686188 80.50831787 -94.36628723 80.51989746 C-100.46917753 80.45852745 -100.46917753 80.45852745 -103.06898499 78.21279907 C-104.51102233 74.78542267 -104.31310174 71.39567102 -104.1875 67.75 C-104.17396484 67.00492187 -104.16042969 66.25984375 -104.14648438 65.4921875 C-104.11127204 63.66114584 -104.05746851 61.83047831 -104 60 C-102.02 59.505 -102.02 59.505 -100 59 C-100.495 57.515 -100.495 57.515 -101 56 C-98.69 56 -96.38 56 -94 56 C-93.67 58.64 -93.34 61.28 -93 64 C-88.71 64 -84.42 64 -80 64 C-80.05542969 63.01 -80.11085938 62.02 -80.16796875 61 C-80.27878666 55.69282963 -80.18686831 50.86812007 -77.2578125 46.2578125 C-68.54377451 38.65738959 -56.92781658 39.84567955 -46 40 C-51.61 39.67 -57.22 39.34 -63 39 C-57.37156157 33.37156157 -57.37156157 33.37156157 -54.4765625 31.46484375 C-53.8475 31.04783203 -53.2184375 30.63082031 -52.5703125 30.20117188 C-51.92835937 29.78416016 -51.28640625 29.36714844 -50.625 28.9375 C-49.99078125 28.51662109 -49.3565625 28.09574219 -48.703125 27.66210938 C-45.63375826 25.64196494 -42.54302047 23.71598354 -39.3359375 21.921875 C-36.36348879 20.2094104 -33.72041082 18.39204481 -31 16.3125 C-25.84711431 12.49262786 -20.48903555 9.19018125 -14.95117188 5.9699707 C-12.37404332 4.46473022 -10.12060131 3.12060131 -8 1 C-5.29913367 0.43731951 -2.7611525 0 0 0 Z " fill="#FAFAFA" transform="translate(134,65)"/>
<path d="M0 0 C6.05783583 0.12620491 8.91926698 2.12699243 13.3984375 6.11328125 C15.12294302 8.14483288 15.73566244 9.36201907 16 12 C14.6875 14.25 14.6875 14.25 13 16 C12.34 16 11.68 16 11 16 C11.185625 17.175625 11.37125 18.35125 11.5625 19.5625 C11.56779799 22.5611626 11.30903345 23.6566295 9.27734375 25.9140625 C6.92129711 27.74878836 4.52004794 29.39847421 2 31 C1.29617187 31.4640625 0.59234375 31.928125 -0.1328125 32.40625 C-3.14130692 34.34112485 -6.21430027 36.1212356 -9.328125 37.8828125 C-17.6201935 42.61248503 -25.56380176 47.95800273 -33.375 53.4375 C-38.91692421 57.31548863 -44.5875992 60.93267803 -50.35693359 64.46264648 C-51.30560303 65.04574585 -51.30560303 65.04574585 -52.2734375 65.640625 C-52.82435059 65.97610352 -53.37526367 66.31158203 -53.94287109 66.65722656 C-57.02928724 68.67185851 -60.00078699 70.857705 -63 73 C-57.06 73.33 -51.12 73.66 -45 74 C-47 76 -47 76 -49.08789062 76.20776367 C-49.93544922 76.19463135 -50.78300781 76.18149902 -51.65625 76.16796875 C-65.45445623 75.74312705 -65.45445623 75.74312705 -77.484375 81.484375 C-80.7037349 86.82784865 -80.06776673 92.96123126 -80 99 C-81 100 -81 100 -83.90625 100.1328125 C-85.0921875 100.13023437 -86.278125 100.12765625 -87.5 100.125 C-88.6859375 100.12757813 -89.871875 100.13015625 -91.09375 100.1328125 C-94 100 -94 100 -95 99 C-95.14115161 96.32941149 -95.04247107 93.67567762 -95 91 C-96.37671875 91.2165625 -96.37671875 91.2165625 -97.78125 91.4375 C-109.01561049 93.13681503 -109.01561049 93.13681503 -113.6875 92.8125 C-114.780625 92.874375 -115.87375 92.93625 -117 93 C-119.08216876 95.3549963 -119.08216876 95.3549963 -120 98 C-118.35 99.65 -116.7 101.3 -115 103 C-116.28892677 105.87529818 -117.49296383 108.05008298 -120 110 C-122.6875 110.6875 -122.6875 110.6875 -125 111 C-123.63016497 107.83884224 -123.0109362 107.0072908 -120 105 C-121.20381448 102.50638429 -122.45428722 100.31856917 -124 98 C-123.83725462 94.74509242 -123.46391841 93.43398819 -121.0625 91.1875 C-119 90 -119 90 -117 90 C-116.74992187 89.11183594 -116.49984375 88.22367187 -116.2421875 87.30859375 C-114.95197258 83.87207792 -113.50227934 81.83001199 -111.125 79.0625 C-108.70335745 76.17131096 -106.60362624 73.5081821 -104.9375 70.125 C-102.44139812 66.09902923 -100.17078216 65.12473808 -96 63 C-94.68092315 60.3618463 -94.93867594 58.37722213 -95 55.4375 C-95.03770315 53.62539219 -95.04653361 51.81190256 -95 50 C-94 49 -94 49 -90.83984375 48.90234375 C-89.55207031 48.91394531 -88.26429687 48.92554688 -86.9375 48.9375 C-85.64714844 48.94652344 -84.35679688 48.95554688 -83.02734375 48.96484375 C-82.02832031 48.97644531 -81.02929688 48.98804688 -80 49 C-79.67 49.99 -79.34 50.98 -79 52 C-77.88818359 51.21689453 -77.88818359 51.21689453 -76.75390625 50.41796875 C-68.2551354 44.47819133 -59.60550991 38.80369166 -50.87158203 33.21630859 C-49.09990341 32.06492549 -47.36060229 30.87495198 -45.62109375 29.67578125 C-43 28 -43 28 -41 28 C-40.93296875 27.2575 -40.8659375 26.515 -40.796875 25.75 C-39.75804153 22.16500606 -38.23129354 21.18745798 -35.25 19 C-32.32221171 16.79896767 -29.82242604 14.81003716 -27.3125 12.125 C-24.35681577 9.40896585 -21.92011733 8.71274861 -18 8 C-17.29875 8.226875 -16.5975 8.45375 -15.875 8.6875 C-15.25625 8.790625 -14.6375 8.89375 -14 9 C-11.47906969 6.7295585 -11.47906969 6.7295585 -9 4 C-4.75969582 0.8973384 -4.75969582 0.8973384 -1.6875 1.3125 C-1.130625 1.539375 -0.57375 1.76625 0 2 C0 1.34 0 0.68 0 0 Z " fill="#2F2D2D" transform="translate(135,30)"/>
<path d="M0 0 C8.58 0 17.16 0 26 0 C26.495 3.465 26.495 3.465 27 7 C27.91813477 6.97905273 28.83626953 6.95810547 29.78222656 6.93652344 C33.19655428 6.86825417 36.61015443 6.81815615 40.02490234 6.78027344 C41.5012559 6.76018699 42.97753019 6.73291199 44.45361328 6.69824219 C46.57864962 6.64958816 48.70263234 6.62700327 50.828125 6.609375 C52.1059082 6.58842773 53.38369141 6.56748047 54.70019531 6.54589844 C58 7 58 7 60.42382812 8.84960938 C62.47342063 11.64589358 62.41322446 13.32228634 62.25 16.75 C62.21390625 17.73484375 62.1778125 18.7196875 62.140625 19.734375 C62.09421875 20.48203125 62.0478125 21.2296875 62 22 C60.35 22 58.7 22 57 22 C57 18.37 57 14.74 57 11 C25.98 11.33 -5.04 11.66 -37 12 C-37.33 36.75 -37.66 61.5 -38 87 C-39.32 86.67 -40.64 86.34 -42 86 C-42.0462752 75.99500805 -42.08184462 65.99004142 -42.10362434 55.98496437 C-42.11407582 51.33954726 -42.12825979 46.69420319 -42.15087891 42.04882812 C-42.1725588 37.56846775 -42.18455834 33.08817778 -42.18975449 28.60776901 C-42.19345899 26.89568345 -42.20069266 25.18360188 -42.21146011 23.47154617 C-42.22591068 21.07941514 -42.22798067 18.68757758 -42.22705078 16.29541016 C-42.23424133 15.58259384 -42.24143188 14.86977753 -42.24884033 14.13536072 C-42.22810432 9.22810432 -42.22810432 9.22810432 -40 7 C-37.05903263 6.82460564 -34.21346651 6.76867625 -31.2734375 6.8046875 C-29.97921371 6.80893234 -29.97921371 6.80893234 -28.65884399 6.81326294 C-25.8974228 6.82447667 -23.1363235 6.84958316 -20.375 6.875 C-18.50521301 6.88502827 -16.63542095 6.89415438 -14.765625 6.90234375 C-10.17695891 6.92441988 -5.58853407 6.95895766 -1 7 C-0.67 4.69 -0.34 2.38 0 0 Z M3 3 C3 4.32 3 5.64 3 7 C9.6 7 16.2 7 23 7 C23 6.01 23 5.02 23 4 C16.4 3.67 9.8 3.34 3 3 Z " fill="#4A4B4B" transform="translate(72,8)"/>
<path d="M0 0 C0.04627451 10.13537602 0.08184427 20.27072704 0.10362434 30.40618706 C0.11407597 35.11213783 0.12826022 39.81801651 0.15087891 44.52392578 C0.17255826 49.06264076 0.18455823 53.60128624 0.18975449 58.14004898 C0.19345909 59.87446309 0.20069294 61.60887326 0.21146011 63.3432579 C0.22590995 65.76652086 0.2279807 68.18949409 0.22705078 70.61279297 C0.23424133 71.33496002 0.24143188 72.05712708 0.24884033 72.80117798 C0.22810432 77.77189568 0.22810432 77.77189568 -2 80 C-5.11786001 80.20956243 -8.14757728 80.29362168 -11.26733398 80.29052734 C-12.22841064 80.29724457 -13.1894873 80.30396179 -14.1796875 80.31088257 C-17.36854163 80.3299388 -20.55718617 80.33379052 -23.74609375 80.3359375 C-25.95565377 80.34235983 -28.16521292 80.34908776 -30.37477112 80.35610962 C-35.01101657 80.36810128 -39.64718739 80.37178847 -44.28344727 80.37060547 C-50.23357437 80.37040211 -56.18322476 80.39771385 -62.13323879 80.43214989 C-66.6979239 80.45435178 -71.26249305 80.45844508 -75.82722664 80.45738602 C-78.02134915 80.45975174 -80.2154744 80.46862948 -82.40954399 80.48405075 C-85.47446267 80.50357616 -88.53833715 80.4979257 -91.60327148 80.48583984 C-92.51506668 80.49707886 -93.42686188 80.50831787 -94.36628723 80.51989746 C-100.46917753 80.45852745 -100.46917753 80.45852745 -103.06898499 78.21279907 C-104.51102233 74.78542267 -104.31310174 71.39567102 -104.1875 67.75 C-104.17396484 67.00492187 -104.16042969 66.25984375 -104.14648438 65.4921875 C-104.11127204 63.66114584 -104.05746851 61.83047831 -104 60 C-102.35 60 -100.7 60 -99 60 C-99 65.28 -99 70.56 -99 76 C-67.65 76 -36.3 76 -4 76 C-4 51.25 -4 26.5 -4 1 C-2 0 -2 0 0 0 Z " fill="#4D4D4D" transform="translate(134,65)"/>
<path d="M0 0 C0.83334366 0.00718552 1.66668732 0.01437103 2.52528381 0.02177429 C3.80883507 0.02246162 3.80883507 0.02246162 5.11831665 0.02316284 C6.92984908 0.02618662 8.74137888 0.03407667 10.5528717 0.0464325 C13.32697256 0.06464641 16.10073888 0.06694247 18.87489319 0.06669617 C20.63335962 0.07161304 22.39182378 0.07744209 24.15028381 0.08427429 C24.98160324 0.08538712 25.81292267 0.08649994 26.66943359 0.08764648 C29.99460026 0.11505034 32.72826157 0.19360021 35.90419006 1.25224304 C36.23419006 0.92224304 36.56419006 0.59224304 36.90419006 0.25224304 C40.18762187 -0.02594245 43.48536739 0.02046613 46.77919006 0.00224304 C48.16557678 -0.02869446 48.16557678 -0.02869446 49.57997131 -0.06025696 C50.46813538 -0.06541321 51.35629944 -0.07056946 52.27137756 -0.07588196 C53.08719299 -0.08522766 53.90300842 -0.09457336 54.74354553 -0.10420227 C56.90419006 0.25224304 56.90419006 0.25224304 59.90419006 3.25224304 C38.78419006 3.58224304 17.66419006 3.91224304 -4.09580994 4.25224304 C-4.42580994 29.33224304 -4.75580994 54.41224304 -5.09580994 80.25224304 C-6.08580994 79.92224304 -7.07580994 79.59224304 -8.09580994 79.25224304 C-8.14208514 69.24725109 -8.17765456 59.24228446 -8.19943428 49.23720741 C-8.20988576 44.5917903 -8.22406973 39.94644623 -8.24668884 35.30107117 C-8.26836874 30.82071079 -8.28036828 26.34042082 -8.28556442 21.86001205 C-8.28926893 20.14792649 -8.2965026 18.43584492 -8.30727005 16.72378922 C-8.32172061 14.33165818 -8.32379061 11.93982063 -8.32286072 9.5476532 C-8.33005127 8.83483688 -8.33724182 8.12202057 -8.34465027 7.38760376 C-8.31624001 0.66420785 -6.51318386 0.02599131 0 0 Z " fill="#3B3C3C" transform="translate(38.09580993652344,14.747756958007813)"/>
<path d="M0 0 C8.58 0 17.16 0 26 0 C26.33 2.64 26.66 5.28 27 8 C25.68 8 24.36 8 23 8 C23 6.68 23 5.36 23 4 C21.80761719 4.01160156 20.61523438 4.02320313 19.38671875 4.03515625 C17.82031406 4.04453592 16.25390769 4.05363593 14.6875 4.0625 C13.50897461 4.07506836 13.50897461 4.07506836 12.30664062 4.08789062 C11.54931641 4.09111328 10.79199219 4.09433594 10.01171875 4.09765625 C8.96697388 4.10551147 8.96697388 4.10551147 7.90112305 4.11352539 C6 4 6 4 3 3 C3 4.65 3 6.3 3 8 C2.01 8.495 2.01 8.495 1 9 C0.34 8.67 -0.32 8.34 -1 8 C-0.67 5.36 -0.34 2.72 0 0 Z " fill="#535454" transform="translate(72,8)"/>
<path d="M0 0 C0 3.63 0 7.26 0 11 C-3.3 11.33 -6.6 11.66 -10 12 C-10 8.7 -10 5.4 -10 2 C-3.375 0 -3.375 0 0 0 Z " fill="#F9F9F9" transform="translate(53,117)"/>
<path d="M0 0 C3.96 0 7.92 0 12 0 C11.67 2.97 11.34 5.94 11 9 C7.37 9 3.74 9 0 9 C0 6.03 0 3.06 0 0 Z " fill="#F9F9F9" transform="translate(43,57)"/>
<path d="M0 0 C1.27875 0.00257812 2.5575 0.00515625 3.875 0.0078125 C5.15375 0.00523438 6.4325 0.00265625 7.75 0 C10.875 0.1328125 10.875 0.1328125 11.875 1.1328125 C11.78497602 3.15690005 11.62858962 5.17825537 11.4375 7.1953125 C11.33566406 8.30003906 11.23382813 9.40476562 11.12890625 10.54296875 C11.04511719 11.39761719 10.96132813 12.25226563 10.875 13.1328125 C8.56256208 13.15966662 6.2500373 13.17914091 3.9375 13.1953125 C2.64972656 13.20691406 1.36195312 13.21851562 0.03515625 13.23046875 C-3.125 13.1328125 -3.125 13.1328125 -4.125 12.1328125 C-4.22351171 10.30165367 -4.25472629 8.46661317 -4.25 6.6328125 C-4.25257812 5.6325 -4.25515625 4.6321875 -4.2578125 3.6015625 C-4.05906484 -0.09280585 -3.77811202 0.16056976 0 0 Z M-2.125 2.1328125 C-2.125 5.1028125 -2.125 8.0728125 -2.125 11.1328125 C1.505 11.1328125 5.135 11.1328125 8.875 11.1328125 C9.205 8.1628125 9.535 5.1928125 9.875 2.1328125 C5.915 2.1328125 1.955 2.1328125 -2.125 2.1328125 Z " fill="#7A7A7A" transform="translate(45.125,54.8671875)"/>
<path d="M0 0 C0.33 0.99 0.66 1.98 1 3 C-0.9375 5.6875 -0.9375 5.6875 -3 8 C-1.35 9.98 0.3 11.96 2 14 C0.71107323 16.87529818 -0.49296383 19.05008298 -3 21 C-5.6875 21.6875 -5.6875 21.6875 -8 22 C-6.63016497 18.83884224 -6.0109362 18.0072908 -3 16 C-4.20381448 13.50638429 -5.45428722 11.31856917 -7 9 C-7 6.5625 -7 6.5625 -6 4 C-2.9375 1.6875 -2.9375 1.6875 0 0 Z " fill="#464747" transform="translate(18,119)"/>
<path d="M0 0 C0.33 0 0.66 0 1 0 C1.02685095 2.47923801 1.04676547 4.9581884 1.0625 7.4375 C1.07087891 8.14455078 1.07925781 8.85160156 1.08789062 9.58007812 C1.09653588 11.38693559 1.05220011 13.19387603 1 15 C0 16 0 16 -2.90625 16.1328125 C-4.0921875 16.13023437 -5.278125 16.12765625 -6.5 16.125 C-7.6859375 16.12757813 -8.871875 16.13015625 -10.09375 16.1328125 C-13 16 -13 16 -14 15 C-14.14115161 12.32941149 -14.04247107 9.67567762 -14 7 C-15.32 6.67 -16.64 6.34 -18 6 C-15.69 6 -13.38 6 -11 6 C-11 8.97 -11 11.94 -11 15 C-7.7 14.67 -4.4 14.34 -1 14 C-1.09539063 13.15695313 -1.19078125 12.31390625 -1.2890625 11.4453125 C-1.39992188 10.34960938 -1.51078125 9.25390625 -1.625 8.125 C-1.79902344 6.48917969 -1.79902344 6.48917969 -1.9765625 4.8203125 C-1.98429687 3.88960938 -1.99203125 2.95890625 -2 2 C-1.34 1.34 -0.68 0.68 0 0 Z " fill="#626363" transform="translate(54,114)"/>
<path d="M0 0 C8.58 0 17.16 0 26 0 C26 0.99 26 1.98 26 3 C17.42 3 8.84 3 0 3 C0 2.01 0 1.02 0 0 Z " fill="#8A8A8A" transform="translate(63,36)"/>
<path d="M0 0 C3.96 0 7.92 0 12 0 C11 4 11 4 9.2578125 5.484375 C8.55398437 5.90203125 7.85015625 6.3196875 7.125 6.75 C6.07699219 7.39195313 6.07699219 7.39195313 5.0078125 8.046875 C3 9 3 9 0 9 C0 6.03 0 3.06 0 0 Z " fill="#F5F5F5" transform="translate(42,81)"/>
<path d="M0 0 C-1.55842192 3.98772667 -4.11897146 6.11078195 -7.375 8.8125 C-8.33148438 9.62332031 -9.28796875 10.43414062 -10.2734375 11.26953125 C-13 13 -13 13 -15.2421875 12.8515625 C-17.31304765 11.8483458 -18.56378255 10.79527182 -20 9 C-20 8.34 -20 7.68 -20 7 C-17.83125748 7.50603992 -16.00032373 7.99983813 -14 9 C-13.24074219 8.3503125 -12.48148438 7.700625 -11.69921875 7.03125 C-10.70535156 6.1959375 -9.71148437 5.360625 -8.6875 4.5 C-7.70136719 3.6646875 -6.71523438 2.829375 -5.69921875 1.96875 C-3 0 -3 0 0 0 Z " fill="#818282" transform="translate(59,29)"/>
<path d="M0 0 C3.27066566 -0.08706892 6.54103365 -0.14041241 9.8125 -0.1875 C10.74126953 -0.21263672 11.67003906 -0.23777344 12.62695312 -0.26367188 C13.9659668 -0.27817383 13.9659668 -0.27817383 15.33203125 -0.29296875 C16.56530151 -0.31653442 16.56530151 -0.31653442 17.82348633 -0.34057617 C20 0 20 0 23 3 C15.08 3 7.16 3 -1 3 C-0.67 2.01 -0.34 1.02 0 0 Z " fill="#313232" transform="translate(75,15)"/>
<path d="M0 0 C1.93166016 0.01740234 1.93166016 0.01740234 3.90234375 0.03515625 C5.19269531 0.04417969 6.48304687 0.05320312 7.8125 0.0625 C8.81152344 0.07410156 9.81054688 0.08570312 10.83984375 0.09765625 C11.49984375 1.41765625 12.15984375 2.73765625 12.83984375 4.09765625 C11.84984375 4.09765625 10.85984375 4.09765625 9.83984375 4.09765625 C9.83984375 3.43765625 9.83984375 2.77765625 9.83984375 2.09765625 C5.87984375 2.09765625 1.91984375 2.09765625 -2.16015625 2.09765625 C-1.83015625 5.39765625 -1.50015625 8.69765625 -1.16015625 12.09765625 C-2.15015625 12.09765625 -3.14015625 12.09765625 -4.16015625 12.09765625 C-4.18702904 10.28523573 -4.2064934 8.47270392 -4.22265625 6.66015625 C-4.23425781 5.65082031 -4.24585938 4.64148438 -4.2578125 3.6015625 C-4.11172173 -0.14420474 -3.82636297 0.1182436 0 0 Z " fill="#808080" transform="translate(44.16015625,78.90234375)"/>
<path d="M0 0 C0 0.66 0 1.32 0 2 C-8.61458327 5.11179845 -15.96212446 5.09510025 -25 4 C-25 3.34 -25 2.68 -25 2 C-21.39603546 1.66445694 -17.79179755 1.33194526 -14.1875 1 C-13.16333984 0.90460937 -12.13917969 0.80921875 -11.08398438 0.7109375 C-9.60961914 0.57558594 -9.60961914 0.57558594 -8.10546875 0.4375 C-7.19949951 0.35371094 -6.29353027 0.26992188 -5.36010742 0.18359375 C-3 0 -3 0 0 0 Z " fill="#7D7E7E" transform="translate(85,59)"/>
<path d="M0 0 C6.27 0 12.54 0 19 0 C19 0.66 19 1.32 19 2 C3.91176471 3.95588235 3.91176471 3.95588235 0 2 C0 1.34 0 0.68 0 0 Z " fill="#737474" transform="translate(58,120)"/>
<path d="M0 0 C2.9296875 0.390625 2.9296875 0.390625 5.859375 0.78125 C8.30458395 1.06777357 8.30458395 1.06777357 12 1 C13.66666667 1 15.33333333 1 17 1 C16.01 2.485 16.01 2.485 15 4 C13.7934375 3.7525 13.7934375 3.7525 12.5625 3.5 C8.34112648 2.90752652 4.25335455 2.91493291 0 3 C0 2.01 0 1.02 0 0 Z " fill="#7C7D7D" transform="translate(108,121)"/>
<path d="M0 0 C2.08304538 -0.05418326 4.16649768 -0.09287551 6.25 -0.125 C7.99023438 -0.15980469 7.99023438 -0.15980469 9.765625 -0.1953125 C12.82786046 -0.0103949 14.44202751 0.39176977 17 2 C11.33357449 3.22517308 5.76291482 3.09228867 0 3 C0 2.01 0 1.02 0 0 Z " fill="#7E7F7F" transform="translate(84,120)"/>
<path d="M0 0 C2.31 0 4.62 0 7 0 C7 2.97 7 5.94 7 9 C6.01 9 5.02 9 4 9 C4 6.36 4 3.72 4 1 C2.68 0.67 1.36 0.34 0 0 Z " fill="#8F9090" transform="translate(36,120)"/>
<path d="M0 0 C-1.45255699 3.82946843 -3.42895561 5.12050295 -7 7 C-7.66 6.34 -8.32 5.68 -9 5 C-3.375 0 -3.375 0 0 0 Z " fill="#8D8E8E" transform="translate(59,29)"/>
<path d="M0 0 C1.32 0.33 2.64 0.66 4 1 C4.33 2.65 4.66 4.3 5 6 C3.2925002 4.71937515 1.62626404 3.38232443 0 2 C0 1.34 0 0.68 0 0 Z " fill="#898A8A" transform="translate(39,36)"/>
</svg>
